<?xml version="1.0"?>
<svg xmlns="http://www.w3.org/2000/svg" version="1" width="100%" height="100%" font-family="sans-serif" font-size="16pt">
    <defs>
        <pattern id="rainbow" width="510px" height="17em" patternUnits="userSpaceOnUse">
            <linearGradient id="rainbow-gradient">
                <stop offset="0%"   stop-color="#ff0000" />
                <stop offset="13%"  stop-color="#fb00ff" />
                <stop offset="29%"  stop-color="#0000ff" />
                <stop offset="44%"  stop-color="#00ffee" />
                <stop offset="59%"  stop-color="#00ff22" />
                <stop offset="74%"  stop-color="#ffff00" />
                <stop offset="88%"  stop-color="#ff9900" />
                <stop offset="100%" stop-color="#ff0000" />
            </linearGradient>

            <rect                   width="510px" height="1em" fill="url(#rainbow-gradient)" />
            <rect x="-30"  y="1em"  width="510px" height="1em" fill="url(#rainbow-gradient)" />
            <rect x="-60"  y="2em"  width="510px" height="1em" fill="url(#rainbow-gradient)" />
            <rect x="-90"  y="3em"  width="510px" height="1em" fill="url(#rainbow-gradient)" />
            <rect x="-120" y="4em"  width="510px" height="1em" fill="url(#rainbow-gradient)" />
            <rect x="-150" y="5em"  width="510px" height="1em" fill="url(#rainbow-gradient)" />
            <rect x="-180" y="6em"  width="510px" height="1em" fill="url(#rainbow-gradient)" />
            <rect x="-210" y="7em"  width="510px" height="1em" fill="url(#rainbow-gradient)" />
            <rect x="-240" y="8em"  width="510px" height="1em" fill="url(#rainbow-gradient)" />
            <rect x="-270" y="9em"  width="510px" height="1em" fill="url(#rainbow-gradient)" />
            <rect x="-300" y="10em" width="510px" height="1em" fill="url(#rainbow-gradient)" />
            <rect x="-330" y="11em" width="510px" height="1em" fill="url(#rainbow-gradient)" />
            <rect x="-360" y="12em" width="510px" height="1em" fill="url(#rainbow-gradient)" />
            <rect x="-390" y="13em" width="510px" height="1em" fill="url(#rainbow-gradient)" />
            <rect x="-420" y="14em" width="510px" height="1em" fill="url(#rainbow-gradient)" />
            <rect x="-450" y="15em" width="510px" height="1em" fill="url(#rainbow-gradient)" />
            <rect x="-480" y="16em" width="510px" height="1em" fill="url(#rainbow-gradient)" />

            <rect x="480"  y="1em"  width="510px" height="1em" fill="url(#rainbow-gradient)" />
            <rect x="450"  y="2em"  width="510px" height="1em" fill="url(#rainbow-gradient)" />
            <rect x="420"  y="3em"  width="510px" height="1em" fill="url(#rainbow-gradient)" />
            <rect x="390"  y="4em"  width="510px" height="1em" fill="url(#rainbow-gradient)" />
            <rect x="360"  y="5em"  width="510px" height="1em" fill="url(#rainbow-gradient)" />
            <rect x="330"  y="6em"  width="510px" height="1em" fill="url(#rainbow-gradient)" />
            <rect x="300"  y="7em"  width="510px" height="1em" fill="url(#rainbow-gradient)" />
            <rect x="270"  y="8em"  width="510px" height="1em" fill="url(#rainbow-gradient)" />
            <rect x="240"  y="9em"  width="510px" height="1em" fill="url(#rainbow-gradient)" />
            <rect x="210"  y="10em" width="510px" height="1em" fill="url(#rainbow-gradient)" />
            <rect x="180"  y="11em" width="510px" height="1em" fill="url(#rainbow-gradient)" />
            <rect x="150"  y="12em" width="510px" height="1em" fill="url(#rainbow-gradient)" />
            <rect x="120"  y="13em" width="510px" height="1em" fill="url(#rainbow-gradient)" />
            <rect x="90"   y="14em" width="510px" height="1em" fill="url(#rainbow-gradient)" />
            <rect x="60"   y="15em" width="510px" height="1em" fill="url(#rainbow-gradient)" />
            <rect x="30"   y="16em" width="510px" height="1em" fill="url(#rainbow-gradient)" />

            <animate
                attributeName="x"
                from="0" to="510"
                dur="750ms"
                begin="0s"
                repeatCount="indefinite" />
        </pattern>

        
        <pattern id="text-tile" width="15.862716674804688px" height="1em" patternUnits="userSpaceOnUse">
            <rect width="100%" height="100%" fill="#000" mask="url(#knockout)" />
        
            <mask id="knockout">
                <rect width="100%" height="100%" fill="#fff" />
                <text id="text" y="0.75em" fill="#000" font-family="sans-serif">h</text>
            </mask>

            <animate id="text-x"
                attributeName="x"
                begin="indefinite"
                calcMode="spline"
                keyTimes="0; 1"
                keySplines="0.4 0 0.6 1"
                fill="freeze" />
            <animate id="text-y"
                attributeName="y"
                begin="indefinite"
                calcMode="spline"
                keyTimes="0; 1"
                keySplines="0.4 0 0.6 1"
                fill="freeze" />
        </pattern>
    </defs>

    <rect width="100%" height="100%" fill="url(#rainbow)" />
    <rect width="100%" height="100%" fill="url(#text-tile)" />
</svg>
